<svg xmlns="http://www.w3.org/2000/svg" xmlns:xlink="http://www.w3.org/1999/xlink" width="500" zoomAndPan="magnify" viewBox="0 0 375 374.999991" height="500" preserveAspectRatio="xMidYMid meet" version="1.2"><defs/><g id="b8a615347b"><g style="fill:#000000;fill-opacity:1;"><g transform="translate(31.440757, 292.130817)"><path style="stroke:none" d="M 140.484375 -63.25 C 145.054688 -63.25 148.523438 -62.304688 150.890625 -60.421875 C 153.265625 -58.546875 154.453125 -55.894531 154.453125 -52.46875 C 154.453125 -51 154.207031 -49.363281 153.71875 -47.5625 L 145.625 -18.875 C 143.5 -11.84375 140.515625 -6.9375 136.671875 -4.15625 C 132.835938 -1.382812 127.160156 0 119.640625 0 L 4.40625 0 C 0.976562 0 -1.671875 -0.570312 -3.546875 -1.71875 C -5.429688 -2.863281 -6.375 -4.414062 -6.375 -6.375 C -6.375 -7.351562 -6.128906 -8.414062 -5.640625 -9.5625 C -5.148438 -10.863281 -4.332031 -11.960938 -3.1875 -12.859375 C -2.039062 -13.765625 -0.816406 -14.628906 0.484375 -15.453125 C 3.097656 -17.078125 5.222656 -18.75 6.859375 -20.46875 C 8.492188 -22.1875 9.882812 -25.007812 11.03125 -28.9375 L 40.9375 -134.59375 C 41.59375 -136.71875 41.921875 -138.765625 41.921875 -140.734375 C 41.921875 -142.523438 41.632812 -144.035156 41.0625 -145.265625 C 40.488281 -146.492188 39.710938 -147.925781 38.734375 -149.5625 C 37.265625 -151.675781 36.53125 -153.390625 36.53125 -154.703125 C 36.53125 -155.191406 36.691406 -156.09375 37.015625 -157.40625 C 37.671875 -159.53125 39.101562 -161.039062 41.3125 -161.9375 C 43.519531 -162.832031 46.910156 -163.28125 51.484375 -163.28125 L 109.09375 -163.28125 C 112.53125 -163.28125 115.1875 -162.75 117.0625 -161.6875 C 118.945312 -160.625 119.890625 -159.113281 119.890625 -157.15625 C 119.890625 -156.332031 119.644531 -155.269531 119.15625 -153.96875 C 118.664062 -152.820312 117.96875 -151.800781 117.0625 -150.90625 C 116.164062 -150.007812 115.347656 -149.351562 114.609375 -148.9375 C 113.878906 -148.53125 113.351562 -148.164062 113.03125 -147.84375 C 110.40625 -146.363281 108.273438 -144.722656 106.640625 -142.921875 C 105.015625 -141.128906 103.628906 -138.351562 102.484375 -134.59375 L 70.859375 -23.53125 L 86.0625 -23.53125 C 89.8125 -23.53125 93.035156 -24.179688 95.734375 -25.484375 C 98.429688 -26.796875 101.253906 -29.253906 104.203125 -32.859375 L 121.109375 -52.953125 C 124.210938 -56.546875 127.195312 -59.160156 130.0625 -60.796875 C 132.925781 -62.429688 136.398438 -63.25 140.484375 -63.25 Z M 140.484375 -63.25 "/></g></g><g style="fill:#000000;fill-opacity:1;"><g transform="translate(124.269138, 293.896964)"><path style="stroke:none" d="M 174.734375 -33.75 C 173.960938 -31.269531 173.578125 -28.789062 173.578125 -26.3125 C 173.578125 -24.207031 173.863281 -22.441406 174.4375 -21.015625 C 175.007812 -19.585938 175.628906 -18.441406 176.296875 -17.578125 C 176.960938 -16.722656 177.394531 -16.109375 177.59375 -15.734375 C 179.5 -13.828125 180.453125 -11.921875 180.453125 -10.015625 C 180.453125 -9.628906 180.257812 -8.675781 179.875 -7.15625 C 179.113281 -4.476562 177.445312 -2.613281 174.875 -1.5625 C 172.300781 -0.519531 168.34375 0 163 0 L 95.234375 0 C 91.222656 0 88.117188 -0.664062 85.921875 -2 C 83.734375 -3.332031 82.640625 -5.144531 82.640625 -7.4375 C 82.640625 -8.582031 82.925781 -9.820312 83.5 -11.15625 C 84.070312 -12.675781 84.878906 -13.863281 85.921875 -14.71875 C 86.972656 -15.582031 88.453125 -16.585938 90.359375 -17.734375 C 93.410156 -19.441406 95.890625 -21.34375 97.796875 -23.4375 C 99.703125 -25.539062 101.320312 -28.976562 102.65625 -33.75 L 110.09375 -58.34375 L 65.484375 -58.34375 L 57.765625 -42.03125 C 54.523438 -34.976562 52.90625 -29.453125 52.90625 -25.453125 C 52.90625 -23.160156 53.285156 -21.300781 54.046875 -19.875 C 54.804688 -18.445312 55.953125 -16.96875 57.484375 -15.4375 C 58.816406 -13.914062 59.71875 -12.628906 60.1875 -11.578125 C 60.664062 -10.535156 60.71875 -9.15625 60.34375 -7.4375 C 59.582031 -4.570312 58.007812 -2.613281 55.625 -1.5625 C 53.238281 -0.519531 49.472656 0 44.328125 0 L 1.71875 0 C -2.664062 0 -6 -0.804688 -8.28125 -2.421875 C -10.570312 -4.046875 -11.71875 -6.191406 -11.71875 -8.859375 C -11.71875 -11.910156 -10.617188 -14.34375 -8.421875 -16.15625 C -6.234375 -17.96875 -2.945312 -19.921875 1.4375 -22.015625 C 7.15625 -24.878906 11.726562 -27.691406 15.15625 -30.453125 C 18.582031 -33.222656 21.535156 -37.082031 24.015625 -42.03125 L 74.921875 -147.5625 C 82.742188 -163.957031 91.941406 -175.820312 102.515625 -183.15625 C 113.097656 -190.5 127.066406 -194.171875 144.421875 -194.171875 C 163.859375 -194.171875 178.914062 -190.210938 189.59375 -182.296875 C 200.269531 -174.390625 205.609375 -163.382812 205.609375 -149.28125 C 205.609375 -143.363281 204.65625 -137.257812 202.75 -130.96875 Z M 118.671875 -86.9375 L 133.828125 -137.265625 C 134.597656 -139.554688 134.984375 -141.941406 134.984375 -144.421875 C 134.984375 -148.035156 133.976562 -150.75 131.96875 -152.5625 C 129.96875 -154.375 127.15625 -155.28125 123.53125 -155.28125 C 118.957031 -155.28125 115.050781 -153.945312 111.8125 -151.28125 C 108.570312 -148.613281 105.332031 -143.847656 102.09375 -136.984375 L 78.640625 -86.9375 Z M 118.671875 -86.9375 "/></g></g></g></svg>